<?xml version="1.0" standalone="no"?>
<!DOCTYPE svg PUBLIC "-//W3C//DTD SVG 20010904//EN"
 "http://www.w3.org/TR/2001/REC-SVG-20010904/DTD/svg10.dtd">
<svg version="1.0" xmlns="http://www.w3.org/2000/svg"
 width="96.000000pt" height="97.000000pt" viewBox="0 0 96.000000 97.000000"
 preserveAspectRatio="xMidYMid meet">

<g transform="translate(0.000000,97.000000) scale(0.100000,-0.100000)"
fill="#000000" stroke="none">
<path d="M375 671 c-22 -10 -49 -26 -59 -34 -18 -13 -13 -14 50 -10 79 6 126
-9 202 -65 58 -42 129 -58 190 -42 43 10 138 58 130 65 -2 1 -23 -1 -48 -4
-62 -9 -125 4 -177 37 -100 62 -125 72 -188 72 -37 0 -75 -7 -100 -19z"/>
<path d="M104 406 c-28 -13 -54 -28 -57 -32 -3 -5 32 -9 76 -9 74 0 87 -3 130
-30 109 -68 124 -75 164 -81 51 -8 135 16 183 51 l34 25 -34 -6 c-19 -3 -41
-7 -48 -10 -35 -10 -121 19 -186 64 -63 44 -73 47 -140 50 -59 2 -80 -1 -122
-22z"/>
</g>
</svg>
